<?xml version="1.0" encoding="UTF-8"?>
<svg id="_레이어_2" data-name="레이어 2" xmlns="http://www.w3.org/2000/svg" viewBox="0 0 532.81 722.63">
  <defs>
    <style>
      .cls-1 {
        fill: #333;
        stroke-width: 0px;
      }
    </style>
  </defs>
  <g id="_레이어_1-2" data-name="레이어 1">
    <path class="cls-1" d="m266.41,0C119.27,0,0,119.27,0,266.41s119.27,266.41,266.41,266.41v-59.4h25.09v-74.82h-25.09v-38.25h25.09v-74.82h-25.09v-38.25h25.09v-74.82h-25.09v-38.25h25.09V59.4h-25.09V0Z"/>
    <path class="cls-1" d="m505.65,149.18c-13.62-27.74-31.93-52.74-53.88-74.02l-20.02,20.52c19.64,19.03,36.02,41.38,48.2,66.2l25.71-12.71Z"/>
    <path class="cls-1" d="m391.05,30.95c-26.66-14.14-56.01-23.88-87.09-28.27l-4.14,28.38c27.8,3.91,54.05,12.62,77.89,25.28l13.33-25.39Z"/>
    <path class="cls-1" d="m431.75,437.13l20.02,20.52c21.95-21.28,40.26-46.28,53.88-74.02l-25.71-12.71c-12.17,24.82-28.55,47.17-48.19,66.2Z"/>
    <path class="cls-1" d="m528.81,220.63l-28.27,4.83c2.31,13.31,3.59,26.97,3.59,40.94s-1.27,27.63-3.59,40.94l28.27,4.83c2.58-14.88,4-30.16,4-45.78s-1.42-30.89-4-45.77Z"/>
    <path class="cls-1" d="m299.82,501.75l4.14,28.38c31.08-4.39,60.42-14.12,87.09-28.27l-13.33-25.39c-23.84,12.66-50.09,21.37-77.89,25.28Z"/>
    <path class="cls-1" d="m48.05,720.76c-3.37,0-4.86-1.37-4.86-4.48v-80.6c0-3.11,1.49-4.48,4.86-4.48h20.94c3.38,0,4.86,1.37,4.86,4.48v61.57h18.5v-20.15c0-3.11,1.49-4.48,4.86-4.48h19.59c3.38,0,4.86,1.37,4.86,4.48v39.18c0,3.11-1.48,4.48-4.86,4.48H48.05Z"/>
    <path class="cls-1" d="m178.08,722.63c-33.49,0-41.73-10.2-41.73-25.38v-61.57c0-3.11,1.48-4.48,4.86-4.48h21.2c3.38,0,4.86,1.37,4.86,4.48v56.72c0,3.36,1.62,5.85,11.08,5.85s11.22-2.49,11.22-5.85v-56.72c0-3.11,1.35-4.48,4.86-4.48h20.53c3.38,0,4.86,1.37,4.86,4.48v61.57c0,15.18-8.24,25.38-41.74,25.38Z"/>
    <path class="cls-1" d="m242.6,720.76c-3.37,0-4.86-1.37-4.86-4.48v-80.6c0-3.11,1.49-4.48,4.86-4.48h14.05c3.51,0,5.67.87,7.97,3.36l26.2,27.61v-26.49c0-3.11,1.48-4.48,4.86-4.48h20.26c3.38,0,4.86,1.37,4.86,4.48v80.6c0,3.11-1.48,4.48-4.86,4.48h-20.26c-3.38,0-4.86-1.37-4.86-4.48v-15.3l-23.1-25.75v41.05c0,3.11-1.48,4.48-4.86,4.48h-20.26Z"/>
    <path class="cls-1" d="m362.1,720.76h-19.86c-3.37,0-4.86-1.37-4.86-4.48v-32.84c0-4.98,1.62-11.19,5.27-19.9l11.75-28.24c1.08-2.86,3.24-4.11,6.88-4.11h36.34c3.51,0,5.67,1.24,6.75,4.11l11.75,28.24c3.65,8.7,5.27,14.92,5.27,19.9v32.84c0,3.11-1.48,4.48-4.86,4.48h-20.4c-3.64,0-5.27-1.37-5.27-4.48v-17.41h-23.91v17.41c0,3.11-1.48,4.48-4.86,4.48Zm6.21-44.53h21.2l-6.35-18.9c-.68-1.5-1.49-2.12-2.57-2.12h-3.37c-1.09,0-1.9.62-2.57,2.12l-6.35,18.9Z"/>
    <path class="cls-1" d="m442.83,720.76c-3.38,0-4.86-1.37-4.86-4.48v-80.6c0-3.11,1.48-4.48,4.86-4.48h44.98c20.26,0,26.61,8.46,26.61,20.77v5.72c0,6.97-1.9,11.94-7.56,14.18,9.86.99,16.34,7.59,16.34,18.03v26.37c0,3.11-1.48,4.48-4.86,4.48h-20.93c-3.38,0-4.86-1.37-4.86-4.48v-19.03c0-3.73-1.35-5.34-5.13-5.34h-18.91v24.38c0,3.11-1.48,4.48-4.86,4.48h-20.8Zm25.66-51.25h10.13c4.73,0,5.94-2.48,5.94-5.84v-4.23c0-3.36-1.21-5.85-5.94-5.85h-10.13v15.92Z"/>
  </g>
</svg>