<?xml version="1.0" encoding="UTF-8"?>
<svg id="_레이어_2" data-name="레이어 2" xmlns="http://www.w3.org/2000/svg" viewBox="0 0 532.81 532.81">
  <defs>
    <style>
      .cls-1 {
        fill: #333;
        stroke-width: 0px;
      }
    </style>
  </defs>
  <g id="_레이어_1-2" data-name="레이어 1">
    <path class="cls-1" d="m266.41,0C119.27,0,0,119.27,0,266.41s119.27,266.41,266.41,266.41v-59.4h25.09v-74.82h-25.09v-38.25h25.09v-74.82h-25.09v-38.25h25.09v-74.82h-25.09v-38.25h25.09V59.4h-25.09V0Z"/>
    <path class="cls-1" d="m505.65,149.18c-13.62-27.74-31.93-52.74-53.88-74.02l-20.02,20.52c19.64,19.03,36.02,41.38,48.2,66.2l25.71-12.71Z"/>
    <path class="cls-1" d="m391.05,30.95c-26.66-14.14-56.01-23.88-87.09-28.27l-4.14,28.38c27.8,3.91,54.05,12.62,77.89,25.28l13.33-25.39Z"/>
    <path class="cls-1" d="m431.75,437.13l20.02,20.52c21.95-21.28,40.26-46.28,53.88-74.02l-25.71-12.71c-12.17,24.82-28.55,47.17-48.19,66.2Z"/>
    <path class="cls-1" d="m528.81,220.63l-28.27,4.83c2.31,13.31,3.59,26.97,3.59,40.94s-1.27,27.63-3.59,40.94l28.27,4.83c2.58-14.88,4-30.16,4-45.78s-1.42-30.89-4-45.77Z"/>
    <path class="cls-1" d="m299.82,501.75l4.14,28.38c31.08-4.39,60.42-14.12,87.09-28.27l-13.33-25.39c-23.84,12.66-50.09,21.37-77.89,25.28Z"/>
  </g>
</svg>